<svg data-v-0dd9719b="" version="1.0" xmlns="http://www.w3.org/2000/svg" xmlns:xlink="http://www.w3.org/1999/xlink" width="100%" height="100%" viewBox="0 0 340.000000 250.000000" preserveAspectRatio="xMidYMid meet" color-interpolation-filters="sRGB" style="margin: auto;"> <rect data-v-0dd9719b="" x="0" y="0" width="100%" height="100%" fill="#fff" fill-opacity="1" class="background"></rect> <rect data-v-0dd9719b="" x="0" y="0" width="100%" height="100%" fill="url(#watermark)" fill-opacity="1" class="watermarklayer"></rect> <g data-v-0dd9719b="" fill="#333" class="icon-text-wrapper icon-svg-group iconsvg" transform="translate(55.05000305175781,94.38431739807129)"><g class="iconsvg-imagesvg" transform="translate(0,0)"><g><rect fill="#333" fill-opacity="0" stroke-width="2" x="0" y="0" width="60" height="61.23136270397698" class="image-rect"></rect> <svg x="0" y="0" width="60" height="61.23136270397698" filtersec="colorsb1836614925" class="image-svg-svg primary" style="overflow: visible;"><svg xmlns="http://www.w3.org/2000/svg" viewBox="0 0 87.69000244140625 89.49000549316406"><path fill="#1d1c58" d="M13.81 27.57H0v13.81H26.13v7.99l11.53-7.45 11.47-7.44-11.47-7.45-11.53-7.51v8.05H13.81z"></path><path fill="#01a9f0" d="M13.81 25.77V13.81h60.07v34.42h13.81V0H0v25.77h13.81z"></path><path fill="#01a9f0" d="M73.88 63.84h13.81V50.03H58.62v-8.05l-11.53 7.45-11.53 7.51 11.53 7.44 11.53 7.45v-7.99h15.26z"></path><path fill="#1d1c58" d="M73.88 65.64v10.03H13.81V43.18H0v46.31h87.69V65.64H73.88z"></path></svg></svg> <!----></g></g> <g transform="translate(67,7.045682907104492)"><g data-gra="path-name" fill-rule="" class="tp-name iconsvg-namesvg"><g transform="scale(1)"><g><path d="M29.47-42.83L41.04-42.83 41.04-17.05Q41.04-8.64 36.28-4.03 31.52 0.59 22.56 0.59L22.56 0.59Q13.8 0.59 9.1-3.9 4.39-8.38 4.39-16.79L4.39-16.79 4.39-42.83 16.03-42.83 16.03-17.7Q16.03-13.15 17.72-11.1 19.42-9.05 22.73-9.05L22.73-9.05Q26.28-9.05 27.88-11.09 29.47-13.13 29.47-17.75L29.47-17.75 29.47-42.83ZM81.77 0L70.31 0 70.31-18.11Q70.31-21.42 69.36-23.1 68.41-24.79 66.3-24.79L66.3-24.79Q63.4-24.79 62.11-22.47 60.82-20.16 60.82-14.53L60.82-14.53 60.82 0 49.37 0 49.37-33.19 58.01-33.19 59.44-29.09 60.12-29.09Q61.58-31.44 64.17-32.61 66.77-33.78 70.14-33.78L70.14-33.78Q75.64-33.78 78.71-30.59 81.77-27.39 81.77-21.59L81.77-21.59 81.77 0ZM101.07-33.19L101.07 0 89.62 0 89.62-33.19 101.07-33.19ZM89.33-41.46L89.33-41.46Q89.33-44.03 90.76-45.29 92.2-46.55 95.39-46.55L95.39-46.55Q98.58-46.55 100.05-45.26 101.51-43.97 101.51-41.46L101.51-41.46Q101.51-36.42 95.39-36.42L95.39-36.42Q89.33-36.42 89.33-41.46ZM125.33-8.47L125.33-8.47Q127.65-8.47 130.87-9.61L130.87-9.61 130.87-1.26Q128.55-0.26 126.46 0.16 124.37 0.59 121.55 0.59L121.55 0.59Q115.78 0.59 113.23-2.24 110.68-5.07 110.68-10.93L110.68-10.93 110.68-24.61 106.67-24.61 106.67-29.27 111.77-32.87 114.73-39.84 122.23-39.84 122.23-33.19 130.37-33.19 130.37-24.61 122.23-24.61 122.23-11.69Q122.23-8.47 125.33-8.47ZM152.7 0.59L152.7 0.59Q144.4 0.59 139.82-3.82 135.23-8.23 135.23-16.38L135.23-16.38Q135.23-24.79 139.48-29.28 143.73-33.78 151.61-33.78L151.61-33.78Q159.11-33.78 163.2-29.87 167.29-25.96 167.29-18.6L167.29-18.6 167.29-13.51 146.81-13.51Q146.92-10.72 148.84-9.14 150.76-7.56 154.07-7.56L154.07-7.56Q157.09-7.56 159.62-8.13 162.16-8.7 165.12-10.08L165.12-10.08 165.12-1.85Q162.42-0.47 159.55 0.06 156.68 0.59 152.7 0.59ZM152.02-25.99L152.02-25.99Q150-25.99 148.64-24.71 147.28-23.44 147.04-20.71L147.04-20.71 156.88-20.71Q156.83-23.12 155.52-24.55 154.22-25.99 152.02-25.99Z" transform="translate(-4.389999866485596, 46.54999923706055)"></path></g> <!----> <!----> <!----> <!----> <!----> <!----> <!----></g></g> <!----></g></g><defs v-gra="od"></defs></svg>